<svg width="23" height="22" xmlns="http://www.w3.org/2000/svg">
    <path class="iconGitHub" d="M11.499 0C5.149 0 0 5.05 0 11.279c0 4.983 3.295 9.21 7.865 10.701.575.104.785-.244.785-.543 0-.268-.01-.977-.016-1.918-3.199.68-3.874-1.513-3.874-1.513-.523-1.303-1.277-1.65-1.277-1.65-1.044-.699.08-.685.08-.685 1.154.08 1.76 1.163 1.76 1.163 1.027 1.723 2.693 1.225 3.348.936.104-.728.402-1.225.73-1.507-2.554-.284-5.239-1.252-5.239-5.574 0-1.231.449-2.239 1.184-3.027-.118-.285-.513-1.432.113-2.984 0 0 .965-.304 3.162 1.156.917-.25 1.902-.375 2.88-.38.976.005 1.96.13 2.878.38 2.196-1.46 3.16-1.156 3.16-1.156.627 1.552.233 2.7.115 2.984.737.788 1.181 1.796 1.181 3.027 0 4.333-2.689 5.286-5.25 5.565.412.348.78 1.037.78 2.088 0 1.508-.014 2.725-.014 3.095 0 .301.208.652.79.542C19.709 20.484 23 16.26 23 11.28 23 5.049 17.85 0 11.499 0" fill="#337AB7" fill-rule="evenodd"/>
</svg>
